<?xml version="1.0" encoding="utf-8"?>
<!-- Generator: Adobe Illustrator 24.2.0, SVG Export Plug-In . SVG Version: 6.00 Build 0)  -->
<svg version="1.1" id="Layer_1" xmlns="http://www.w3.org/2000/svg" xmlns:xlink="http://www.w3.org/1999/xlink" x="0px" y="0px"
	 viewBox="0 0 105.4 122.9" style="enable-background:new 0 0 105.4 122.9;" xml:space="preserve">
<style type="text/css">
	.st0{fill-rule:evenodd;clip-rule:evenodd;fill:#FFFFFF;}
</style>
<g>
	<path class="st0" d="M101.5,44.6c-0.4,3.1-0.9,6.2-1.4,9.2l0.5,5.7c1.6,0.2,2.8,1.1,3.7,2.6c1,1.8,1.3,4.5,1,7.4
		c-0.3,2.8-1,5.8-2.1,8.5c-1.9,4.8-4.9,8.8-8.4,9.3c-0.4,1.2-0.8,2.5-1.1,3.7c-1.8,6.1-3.2,10.9-6.9,15.6
		c-4.1,5.2-9.5,9.2-15.1,11.9c-6.2,3-12.8,4.5-18.7,4.3c-5.5-0.1-11.9-1.7-17.9-4.6c-5.5-2.6-10.6-6.4-14.8-11.2
		c-4.5-5.3-6.4-10.9-8.9-18.3c-0.3-0.9-0.6-1.8-0.9-2.6c-3.1,0-5.7-2.7-7.6-6.3c-1.4-2.8-2.4-6.4-2.8-9.6c-0.4-3.4-0.1-6.6,1.2-8.6
		c0.9-1.4,2.1-2.3,3.7-2.5l0.5-5c-0.6-3.9-1.4-8-2-11.9C-4.1-11.7,110.4-17.2,101.5,44.6L101.5,44.6z M40.5,104.2
		c-0.8-0.6-0.9-1.7-0.3-2.5c0.6-0.8,1.7-0.9,2.5-0.3c3.7,2.9,7.1,4.3,10.2,4.3c3.1,0,6.1-1.4,9-4.2c0.7-0.7,1.8-0.7,2.5,0
		c0.7,0.7,0.7,1.8,0,2.5c-3.5,3.4-7.3,5.2-11.4,5.2C49,109.3,44.8,107.7,40.5,104.2L40.5,104.2z M47.6,93.1
		c-0.7-0.7-0.8-1.8-0.1-2.5c0.7-0.7,1.8-0.8,2.5-0.1c0.9,0.8,1.8,1.2,2.5,1.2c0.8,0,1.7-0.4,2.6-1.2c0.7-0.6,1.8-0.6,2.5,0.2
		c0.6,0.7,0.6,1.8-0.2,2.5c-1.6,1.3-3.2,2.1-4.9,2.1C50.8,95.2,49.2,94.5,47.6,93.1L47.6,93.1z M36.8,77.8c0,0.2,0.1,0.4,0.1,0.7
		c0,1.8-1.4,3.2-3.2,3.2c-1.8,0-3.2-1.4-3.2-3.2c0-0.5,0.1-0.9,0.3-1.3c-1.7,0.1-3.3,0.5-5,1.2c-0.8,0.3-1.7-0.2-2-1.1
		c-0.3-0.9,0.1-1.9,1-2.3c2.4-1,4.9-1.4,7.4-1.4c2.5,0,4.9,0.5,7.3,1.4c0.8,0.3,1.3,1.3,1,2.2c-0.3,0.9-1.1,1.4-2,1.2
		C37.9,78.1,37.3,77.9,36.8,77.8L36.8,77.8z M68.4,77.5c0,0.2-0.1,0.4-0.1,0.6c0,1.8,1.4,3.2,3.2,3.2s3.2-1.4,3.2-3.2
		c0-0.4-0.1-0.8-0.2-1.1c1.7,0.1,3.3,0.5,5,1c0.8,0.3,1.7-0.3,1.9-1.2c0.2-0.9-0.2-1.9-1.1-2.2c-2.4-0.8-4.9-1.2-7.3-1.2
		c-2.4,0-4.8,0.4-7.2,1.2c-0.8,0.3-1.3,1.3-1.1,2.2c0.2,0.9,1.1,1.5,1.9,1.2C67.3,77.8,67.9,77.6,68.4,77.5L68.4,77.5z M83.7,66.4
		c0.8,0.6,0.9,1.7,0.2,2.5s-1.7,0.9-2.5,0.2c-2.4-2-7.5-1.1-11.8-0.3c-2.3,0.4-4.5,0.8-6.2,0.7c-1,0-1.7-0.8-1.7-1.8
		s0.8-1.7,1.8-1.7c1.4,0.1,3.3-0.3,5.4-0.7C74.1,64.4,80,63.4,83.7,66.4L83.7,66.4z M23.8,69.5c-0.8,0.6-1.9,0.5-2.5-0.2
		c-0.6-0.8-0.5-1.9,0.2-2.5c3.7-3,9.6-2,14.6-1.1c2.1,0.4,4.1,0.7,5.4,0.7c1,0,1.8,0.7,1.8,1.7c0,1-0.7,1.8-1.7,1.8
		c-1.7,0.1-3.9-0.3-6.2-0.7C31.3,68.4,26.2,67.5,23.8,69.5L23.8,69.5z M8.8,71.3c0.3-0.5,0.9-0.7,1.4-0.4s0.7,0.9,0.4,1.4
		c-0.4,0.6-0.6,1.2-0.6,1.8c0,0.5,0.1,1.1,0.5,1.6c0.3,0.5,0.2,1.1-0.3,1.4c-0.5,0.3-1.1,0.2-1.4-0.3C8.2,75.9,7.9,75,8,74
		C8,73.1,8.3,72.2,8.8,71.3L8.8,71.3z M94.3,72.3c-0.3-0.5-0.1-1.1,0.4-1.4c0.5-0.3,1.1-0.1,1.4,0.4c0.5,0.9,0.8,1.8,0.8,2.7
		c0,1-0.3,1.9-0.9,2.8c-0.3,0.5-1,0.6-1.4,0.3s-0.6-1-0.3-1.4c0.4-0.6,0.5-1.1,0.5-1.6C94.8,73.5,94.6,72.9,94.3,72.3L94.3,72.3z
		 M97.5,62.2l-5.3,3.3L90,50.6c-11.1,6.9-23.7,10-37.5,10.3c-13.2-0.1-25.8-3-37.5-10.4L12.6,65l-4.7-2.6c-0.4,0.5-1.1,0.7-1.7,0.5
		c-0.9-0.2-1.5,0.1-1.9,0.7c-0.8,1.3-1,3.7-0.7,6.4c0.3,2.8,1.2,5.9,2.4,8.4c1.4,2.8,3.3,4.8,5.2,4.3l0,0c0.9-0.3,1.8,0.2,2.1,1.1
		c0.6,1.6,1,2.8,1.4,4c2.3,6.9,4.1,12.3,8.2,17.1c3.8,4.4,8.6,7.9,13.6,10.3c5.5,2.7,11.3,4.1,16.4,4.2c5.3,0.1,11.4-1.2,17.1-4
		c5.2-2.5,10.1-6.2,13.9-11c3.3-4.2,4.6-8.7,6.3-14.4c0.4-1.5,0.9-3.1,1.5-4.9c0.2-0.9,1.1-1.5,2-1.3c2.2,0.4,4.6-2.9,6.1-7.1
		c1-2.4,1.6-5.2,1.8-7.6c0.2-2.3,0-4.2-0.6-5.4c-0.3-0.6-0.9-0.9-1.8-0.7l0,0c-0.1,0-0.1,0-0.2,0C98.5,63.1,97.9,62.7,97.5,62.2
		L97.5,62.2z"/>
</g>
</svg>
